<svg xmlns="http://www.w3.org/2000/svg" width="1600" height="900" viewBox="0 0 1600 900">
  <rect width="100%" height="100%" fill="#FBFCFE"/>
  <style>
    text { font-family: 'Malgun Gothic','Apple SD Gothic Neo','Noto Sans KR',Arial,sans-serif; fill: #203040; }
    .title { font-size: 42px; font-weight: 800; }
    .subtitle { font-size: 22px; fill: #6B7280; }
    .axis { font-size: 18px; fill: #6B7280; }
    .small { font-size: 17px; fill: #6B7280; }
    .label { font-size: 22px; font-weight: 700; }
    .value { font-size: 22px; font-weight: 800; }
  </style>
  <text class="title" x="80" y="86">강남 9개 행정동 택시 수요 가능성 예측 순위</text>
  <text class="subtitle" x="80" y="126">Colab 모델 출력: 지역별 다음 시간대 수요 proxy 점수</text>
  <line x1="360" y1="829" x2="1320" y2="829" stroke="#D7DEE8"/><line x1="360" y1="180" x2="360" y2="810" stroke="#D7DEE8" stroke-width="1"/><text class="axis" x="348" y="840">0.0</text><line x1="488" y1="180" x2="488" y2="810" stroke="#D7DEE8" stroke-width="1"/><text class="axis" x="476" y="840">0.1</text><line x1="616" y1="180" x2="616" y2="810" stroke="#D7DEE8" stroke-width="1"/><text class="axis" x="604" y="840">0.2</text><line x1="744" y1="180" x2="744" y2="810" stroke="#D7DEE8" stroke-width="1"/><text class="axis" x="732" y="840">0.3</text><line x1="872" y1="180" x2="872" y2="810" stroke="#D7DEE8" stroke-width="1"/><text class="axis" x="860" y="840">0.4</text><line x1="1000" y1="180" x2="1000" y2="810" stroke="#D7DEE8" stroke-width="1"/><text class="axis" x="988" y="840">0.5</text><line x1="1128" y1="180" x2="1128" y2="810" stroke="#D7DEE8" stroke-width="1"/><text class="axis" x="1116" y="840">0.6</text><line x1="1256" y1="180" x2="1256" y2="810" stroke="#D7DEE8" stroke-width="1"/><text class="axis" x="1244" y="840">0.7</text><text class="label" x="80" y="237">역삼2동</text><rect x="360" y="205" width="194.68800000000002" height="48" rx="8" fill="#2F80ED"/><text class="value" x="574.688" y="237" fill="#203040">0.152</text><text class="label" x="80" y="307">대치4동</text><rect x="360" y="275" width="295.42400000000004" height="48" rx="8" fill="#2F80ED"/><text class="value" x="675.424" y="307" fill="#203040">0.231</text><text class="label" x="80" y="377">삼성1동</text><rect x="360" y="345" width="298.88" height="48" rx="8" fill="#2F80ED"/><text class="value" x="678.88" y="377" fill="#203040">0.234</text><text class="label" x="80" y="447">삼성2동</text><rect x="360" y="415" width="317.056" height="48" rx="8" fill="#2F80ED"/><text class="value" x="697.056" y="447" fill="#203040">0.248</text><text class="label" x="80" y="517">청담동</text><rect x="360" y="485" width="377.344" height="48" rx="8" fill="#2F80ED"/><text class="value" x="757.344" y="517" fill="#203040">0.295</text><text class="label" x="80" y="587">신사동</text><rect x="360" y="555" width="415.872" height="48" rx="8" fill="#2F80ED"/><text class="value" x="795.8720000000001" y="587" fill="#203040">0.325</text><text class="label" x="80" y="657">논현1동</text><rect x="360" y="625" width="417.664" height="48" rx="8" fill="#2F80ED"/><text class="value" x="797.664" y="657" fill="#203040">0.326</text><text class="label" x="80" y="727">논현2동</text><rect x="360" y="695" width="433.024" height="48" rx="8" fill="#2F80ED"/><text class="value" x="813.024" y="727" fill="#203040">0.338</text><text class="label" x="80" y="797">역삼1동</text><rect x="360" y="765" width="856.832" height="48" rx="8" fill="#EB5757"/><text class="value" x="1236.8319999999999" y="797" fill="#203040">0.669</text><text class="small" x="80" y="875">기준 시점: 2026-03-31 23:00:00+09:00 / 실제 택시 호출량이 아닌 공개 데이터 기반 수요 proxy</text>
</svg>