<svg xmlns="http://www.w3.org/2000/svg" width="1600" height="900" viewBox="0 0 1600 900"><rect width="100%" height="100%" fill="#FBFCFE"/><style>text{font-family:'Malgun Gothic','Apple SD Gothic Neo','Noto Sans KR',Arial,sans-serif;fill:#203040}.title{font-size:42px;font-weight:800}.subtitle{font-size:22px;fill:#6B7280}.axis{font-size:18px;fill:#6B7280}.small{font-size:17px;fill:#6B7280}.label{font-size:22px;font-weight:700}.value{font-size:22px;font-weight:800}</style><text class="title" x="80" y="86">2024+2025 시간대별 대중교통 평균 승차량 패턴</text><text class="subtitle" x="80" y="126">다년치 데이터로 본 평일/주말 강남권 이동 수요</text><line x1="120" y1="760" x2="1480" y2="760" stroke="#D7DEE8"/><text class="axis" x="50" y="766">0</text><line x1="120" y1="652" x2="1480" y2="652" stroke="#D7DEE8"/><text class="axis" x="50" y="658">2,000</text><line x1="120" y1="544" x2="1480" y2="544" stroke="#D7DEE8"/><text class="axis" x="50" y="550">4,000</text><line x1="120" y1="436" x2="1480" y2="436" stroke="#D7DEE8"/><text class="axis" x="50" y="442">6,000</text><line x1="120" y1="328" x2="1480" y2="328" stroke="#D7DEE8"/><text class="axis" x="50" y="334">8,000</text><line x1="120" y1="220" x2="1480" y2="220" stroke="#D7DEE8"/><text class="axis" x="50" y="226">10,000</text><text class="axis" x="108" y="805">0</text><text class="axis" x="226.26086956521738" y="805">2</text><text class="axis" x="344.52173913043475" y="805">4</text><text class="axis" x="462.7826086956522" y="805">6</text><text class="axis" x="581.0434782608695" y="805">8</text><text class="axis" x="699.304347826087" y="805">10</text><text class="axis" x="817.5652173913044" y="805">12</text><text class="axis" x="935.8260869565217" y="805">14</text><text class="axis" x="1054.086956521739" y="805">16</text><text class="axis" x="1172.3478260869565" y="805">18</text><text class="axis" x="1290.608695652174" y="805">20</text><text class="axis" x="1408.8695652173913" y="805">22</text><line x1="120" y1="760" x2="1480" y2="760" stroke="#203040"/><line x1="120" y1="220" x2="120" y2="760" stroke="#203040"/><polyline points="120,746.9354911242604 179.1304347826087,757.6095147928994 238.26086956521738,758.0381656804734 297.3913043478261,758.3318224852071 356.52173913043475,757.056201183432 415.6521739130435,748.7833609467456 474.7826086956522,730.0298698224852 533.9130434782609,688.8536686390532 593.0434782608695,660.4005325443787 652.1739130434783,677.1456686390533 711.304347826087,686.8924378698225 770.4347826086956,673.3663076923077 829.5652173913044,659.5223195266273 888.695652173913,647.8582130177515 947.8260869565217,630.3346982248521 1006.9565217391305,599.7187928994083 1066.086956521739,558.8986153846154 1125.2173913043478,415.238899408284 1184.3478260869565,268.8229585798817 1243.4782608695652,487.18674556213017 1302.608695652174,586.1733727810652 1361.7391304347825,596.2195621301776 1420.8695652173913,627.9589704142012 1480,705.3491124260355" fill="none" stroke="#2F80ED" stroke-width="5" stroke-linejoin="round" stroke-linecap="round"/><circle cx="120" cy="746.9354911242604" r="5" fill="#2F80ED"/><circle cx="179.1304347826087" cy="757.6095147928994" r="5" fill="#2F80ED"/><circle cx="238.26086956521738" cy="758.0381656804734" r="5" fill="#2F80ED"/><circle cx="297.3913043478261" cy="758.3318224852071" r="5" fill="#2F80ED"/><circle cx="356.52173913043475" cy="757.056201183432" r="5" fill="#2F80ED"/><circle cx="415.6521739130435" cy="748.7833609467456" r="5" fill="#2F80ED"/><circle cx="474.7826086956522" cy="730.0298698224852" r="5" fill="#2F80ED"/><circle cx="533.9130434782609" cy="688.8536686390532" r="5" fill="#2F80ED"/><circle cx="593.0434782608695" cy="660.4005325443787" r="5" fill="#2F80ED"/><circle cx="652.1739130434783" cy="677.1456686390533" r="5" fill="#2F80ED"/><circle cx="711.304347826087" cy="686.8924378698225" r="5" fill="#2F80ED"/><circle cx="770.4347826086956" cy="673.3663076923077" r="5" fill="#2F80ED"/><circle cx="829.5652173913044" cy="659.5223195266273" r="5" fill="#2F80ED"/><circle cx="888.695652173913" cy="647.8582130177515" r="5" fill="#2F80ED"/><circle cx="947.8260869565217" cy="630.3346982248521" r="5" fill="#2F80ED"/><circle cx="1006.9565217391305" cy="599.7187928994083" r="5" fill="#2F80ED"/><circle cx="1066.086956521739" cy="558.8986153846154" r="5" fill="#2F80ED"/><circle cx="1125.2173913043478" cy="415.238899408284" r="5" fill="#2F80ED"/><circle cx="1184.3478260869565" cy="268.8229585798817" r="5" fill="#2F80ED"/><circle cx="1243.4782608695652" cy="487.18674556213017" r="5" fill="#2F80ED"/><circle cx="1302.608695652174" cy="586.1733727810652" r="5" fill="#2F80ED"/><circle cx="1361.7391304347825" cy="596.2195621301776" r="5" fill="#2F80ED"/><circle cx="1420.8695652173913" cy="627.9589704142012" r="5" fill="#2F80ED"/><circle cx="1480" cy="705.3491124260355" r="5" fill="#2F80ED"/><polyline points="120,754.7826926829268 179.1304347826087,758.2100975609756 238.26086956521738,758.6812 297.3913043478261,758.918068292683 356.52173913043475,757.2918341463414 415.6521739130435,750.3551902439025 474.7826086956522,743.2504292682927 533.9130434782609,739.4284 593.0434782608695,727.5069268292683 652.1739130434783,714.1868975609756 711.304347826087,702.5096097560976 770.4347826086956,688.630087804878 829.5652173913044,665.8283024390244 888.695652173913,654.0870634146341 947.8260869565217,647.9081170731707 1006.9565217391305,637.5824097560976 1066.086956521739,623.4355804878048 1125.2173913043478,627.8404878048781 1184.3478260869565,646.0549365853658 1243.4782608695652,667.637112195122 1302.608695652174,674.0014731707317 1361.7391304347825,674.764 1420.8695652173913,687.2301853658537 1480,730.0483219512195" fill="none" stroke="#F2994A" stroke-width="5" stroke-linejoin="round" stroke-linecap="round"/><circle cx="120" cy="754.7826926829268" r="5" fill="#F2994A"/><circle cx="179.1304347826087" cy="758.2100975609756" r="5" fill="#F2994A"/><circle cx="238.26086956521738" cy="758.6812" r="5" fill="#F2994A"/><circle cx="297.3913043478261" cy="758.918068292683" r="5" fill="#F2994A"/><circle cx="356.52173913043475" cy="757.2918341463414" r="5" fill="#F2994A"/><circle cx="415.6521739130435" cy="750.3551902439025" r="5" fill="#F2994A"/><circle cx="474.7826086956522" cy="743.2504292682927" r="5" fill="#F2994A"/><circle cx="533.9130434782609" cy="739.4284" r="5" fill="#F2994A"/><circle cx="593.0434782608695" cy="727.5069268292683" r="5" fill="#F2994A"/><circle cx="652.1739130434783" cy="714.1868975609756" r="5" fill="#F2994A"/><circle cx="711.304347826087" cy="702.5096097560976" r="5" fill="#F2994A"/><circle cx="770.4347826086956" cy="688.630087804878" r="5" fill="#F2994A"/><circle cx="829.5652173913044" cy="665.8283024390244" r="5" fill="#F2994A"/><circle cx="888.695652173913" cy="654.0870634146341" r="5" fill="#F2994A"/><circle cx="947.8260869565217" cy="647.9081170731707" r="5" fill="#F2994A"/><circle cx="1006.9565217391305" cy="637.5824097560976" r="5" fill="#F2994A"/><circle cx="1066.086956521739" cy="623.4355804878048" r="5" fill="#F2994A"/><circle cx="1125.2173913043478" cy="627.8404878048781" r="5" fill="#F2994A"/><circle cx="1184.3478260869565" cy="646.0549365853658" r="5" fill="#F2994A"/><circle cx="1243.4782608695652" cy="667.637112195122" r="5" fill="#F2994A"/><circle cx="1302.608695652174" cy="674.0014731707317" r="5" fill="#F2994A"/><circle cx="1361.7391304347825" cy="674.764" r="5" fill="#F2994A"/><circle cx="1420.8695652173913" cy="687.2301853658537" r="5" fill="#F2994A"/><circle cx="1480" cy="730.0483219512195" r="5" fill="#F2994A"/><circle cx="1240" cy="178" r="8" fill="#2F80ED"/><text class="label" x="1260" y="186">평일</text><circle cx="1350" cy="178" r="8" fill="#F2994A"/><text class="label" x="1370" y="186">주말</text><text class="small" x="80" y="875">2024+2025 OA-21226 OD-hourly 데이터 기준, 강남 9개 행정동 출발 승차량 집계.</text></svg>