<svg xmlns="http://www.w3.org/2000/svg" width="1600" height="900" viewBox="0 0 1600 900"><rect width="100%" height="100%" fill="#FBFCFE"/><style>text{font-family:'Malgun Gothic','Apple SD Gothic Neo','Noto Sans KR',Arial,sans-serif;fill:#203040}.title{font-size:42px;font-weight:800}.subtitle{font-size:22px;fill:#6B7280}.axis{font-size:18px;fill:#6B7280}.small{font-size:17px;fill:#6B7280}.label{font-size:22px;font-weight:700}.value{font-size:22px;font-weight:800}</style><text class="title" x="80" y="86">2024+2025 행정동별 평균 대중교통 승차량</text><text class="subtitle" x="80" y="126">다년치 OD 시간대 데이터로 본 강남권 이동량 분포</text><line x1="420" y1="180" x2="420" y2="810" stroke="#D7DEE8"/><text class="axis" x="400" y="840">0</text><line x1="782.046823069849" y1="180" x2="782.046823069849" y2="810" stroke="#D7DEE8"/><text class="axis" x="762.046823069849" y="840">2,000</text><line x1="1144.093646139698" y1="180" x2="1144.093646139698" y2="810" stroke="#D7DEE8"/><text class="axis" x="1124.093646139698" y="840">4,000</text><text class="label" x="80" y="237">신사동</text><rect x="420" y="205" width="64.67824116178724" height="48" rx="8" fill="#1B998B"/><text class="value" x="504.67824116178724" y="237">357명</text><text class="label" x="80" y="307">청담동</text><rect x="420" y="275" width="91.73524520949529" height="48" rx="8" fill="#1B998B"/><text class="value" x="531.7352452094954" y="307">507명</text><text class="label" x="80" y="377">역삼2동</text><rect x="420" y="345" width="98.4075067086611" height="48" rx="8" fill="#1B998B"/><text class="value" x="538.4075067086611" y="377">544명</text><text class="label" x="80" y="447">삼성2동</text><rect x="420" y="415" width="207.24348951864064" height="48" rx="8" fill="#1B998B"/><text class="value" x="647.2434895186407" y="447">1,145명</text><text class="label" x="80" y="517">삼성1동</text><rect x="420" y="485" width="340.6553390730156" height="48" rx="8" fill="#1B998B"/><text class="value" x="780.6553390730156" y="517">1,882명</text><text class="label" x="80" y="587">논현2동</text><rect x="420" y="555" width="349.4572528701501" height="48" rx="8" fill="#1B998B"/><text class="value" x="789.4572528701501" y="587">1,930명</text><text class="label" x="80" y="657">대치4동</text><rect x="420" y="625" width="492.6383388898523" height="48" rx="8" fill="#1B998B"/><text class="value" x="932.6383388898523" y="657">2,721명</text><text class="label" x="80" y="727">논현1동</text><rect x="420" y="695" width="498.2761672741919" height="48" rx="8" fill="#1B998B"/><text class="value" x="938.276167274192" y="727">2,753명</text><text class="label" x="80" y="797">역삼1동</text><rect x="420" y="765" width="900" height="48" rx="8" fill="#1B998B"/><text class="value" x="1340" y="797">4,972명</text><text class="small" x="80" y="875">2024년 366일 + 2025년 346일, 총 712일치 OD-hourly 데이터 기준.</text></svg>