<svg xmlns="http://www.w3.org/2000/svg" width="1280" height="720" viewBox="0 0 1280 720">
  <defs>
    <style>
      .bg{fill:#f5f7fb}.panel{fill:#fff;stroke:#d8e1ec;stroke-width:1.2}.title{font:800 34px 'Malgun Gothic','Apple SD Gothic Neo',Arial,sans-serif;fill:#1f2937}.subtitle{font:500 17px 'Malgun Gothic','Apple SD Gothic Neo',Arial,sans-serif;fill:#687386}.label{font:700 15px 'Malgun Gothic','Apple SD Gothic Neo',Arial,sans-serif;fill:#687386}.text{font:600 16px 'Malgun Gothic','Apple SD Gothic Neo',Arial,sans-serif;fill:#263244}.small{font:500 13px 'Malgun Gothic','Apple SD Gothic Neo',Arial,sans-serif;fill:#687386}.num{font:850 30px 'Malgun Gothic','Apple SD Gothic Neo',Arial,sans-serif;fill:#1f2937}.axis{font:500 12px 'Malgun Gothic','Apple SD Gothic Neo',Arial,sans-serif;fill:#687386}.grid{stroke:#e5ecf5;stroke-width:1}.blue{fill:#2f80ed}.green{fill:#17856b}.red{fill:#d94b3d}.amber{fill:#b15f00}.line-blue{fill:none;stroke:#2f80ed;stroke-width:4}.line-red{fill:none;stroke:#d94b3d;stroke-width:3.5;stroke-dasharray:8 6}.line-green{fill:none;stroke:#17856b;stroke-width:3}
    </style>
  </defs>
  <rect class="bg" x="0" y="0" width="1280" height="720"/>
  <text class="title" x="48" y="58">시간 흐름에서 본 예측 결과</text>
  <text class="subtitle" x="48" y="88">한 행정동의 실제 다음 1시간 승차량과 모델 예측값 비교</text>
  <rect class="panel" x="48" y="116" width="1184" height="548" rx="14"/>
    <line class="grid" x1="84" y1="552" x2="1134" y2="552"/>
      <text class="axis" x="34" y="556">0</text>
<line class="grid" x1="84" y1="449.5" x2="1134" y2="449.5"/>
      <text class="axis" x="34" y="453.5">6,584</text>
<line class="grid" x1="84" y1="347" x2="1134" y2="347"/>
      <text class="axis" x="34" y="351">13,169</text>
<line class="grid" x1="84" y1="244.5" x2="1134" y2="244.5"/>
      <text class="axis" x="34" y="248.5">19,753</text>
<line class="grid" x1="84" y1="142" x2="1134" y2="142"/>
      <text class="axis" x="34" y="146">26,337</text>
    <text class="axis" x="48" y="582">09-17</text>
      <text class="axis" x="66" y="600">00시</text>
<text class="axis" x="259.7647058823529" y="582">09-18</text>
      <text class="axis" x="277.7647058823529" y="600">00시</text>
<text class="axis" x="471.52941176470586" y="582">09-19</text>
      <text class="axis" x="489.52941176470586" y="600">00시</text>
<text class="axis" x="683.2941176470588" y="582">09-20</text>
      <text class="axis" x="701.2941176470588" y="600">00시</text>
<text class="axis" x="895.0588235294117" y="582">09-21</text>
      <text class="axis" x="913.0588235294117" y="600">00시</text>
    <polyline class="line-blue" points="84,548.4 92.8,549.8 101.6,549.7 110.5,549.1 119.3,543.7 128.1,520.1 136.9,467.2 145.8,430.7 154.6,455.2 163.4,486.7 172.2,483.2 181.1,471.6 189.9,463 198.7,450.6 207.5,433.6 216.4,391.1 225.2,230.5 234,151.5 242.8,307.9 251.6,397.3 260.5,402.8 269.3,430.1 278.1,500.6 286.9,536.2 295.8,549 304.6,549.3 313.4,550 322.2,548.9 331.1,543 339.9,520 348.7,467.6 357.5,431.4 366.4,457.5 375.2,480.8 384,473.4 392.8,463.4 401.6,452.1 410.5,445.1 419.3,426.6 428.1,383.8 436.9,224.9 445.8,142 454.6,310.2 463.4,390.3 472.2,396.9 481.1,421.9 489.9,494.4 498.7,528.3 507.5,546.4 516.4,546.9 525.2,548.9 534,548.9 542.8,543.1 551.6,520.4 560.5,469.7 569.3,440 578.1,458.8 586.9,477.6 595.8,466.2 604.6,451.2 613.4,440 622.2,427.9 631.1,395.3 639.9,348.9 648.7,211.9 657.5,145.1 666.4,319 675.2,407.4 684,403.7 692.8,411.8 701.6,477.9 710.5,542.9 719.3,548.8 728.1,549.4 736.9,550 745.8,548.3 754.6,542.9 763.4,530.5 772.2,526.9 781.1,512.5 789.9,498.3 798.7,477 807.5,458.5 816.4,439.3 825.2,426.7 834,416.1 842.8,409.7 851.6,392.8 860.5,400.7 869.3,433.9 878.1,453.6 886.9,464.5 895.8,464.9 904.6,470.8 913.4,512.2 922.2,548 931.1,549.9 939.9,550.9 948.7,551.3 957.5,549.5 966.4,544.4 975.2,539 984,535.6 992.8,523.7 1001.6,513.2 1010.5,497.7 1019.3,493.4 1028.1,473.3 1036.9,470.4 1045.8,462.8 1054.6,461.3 1063.4,447.2 1072.2,461.1 1081.1,470.5 1089.9,483.5 1098.7,489.1 1107.5,490.6 1116.4,502.2 1125.2,530.4 1134,541.5"/>
    <polyline class="line-red" points="84,548.3 92.8,550.2 101.6,550.2 110.5,549.3 119.3,543.8 128.1,529.6 136.9,472 145.8,440.7 154.6,444.5 163.4,475.7 172.2,479.6 181.1,474.2 189.9,461.1 198.7,447.6 207.5,425.9 216.4,398.1 225.2,251 234,169.1 242.8,329 251.6,398 260.5,401.9 269.3,437.4 278.1,499.2 286.9,538.4 295.8,548.7 304.6,550.4 313.4,550.2 322.2,549.3 331.1,543.8 339.9,529.6 348.7,471.6 357.5,443.4 366.4,447.1 375.2,475.9 384,476.9 392.8,466 401.6,457.9 410.5,438.8 419.3,418.4 428.1,386.1 436.9,258.6 445.8,166.9 454.6,334 463.4,402.2 472.2,400 481.1,426.5 489.9,490.3 498.7,537.3 507.5,539.8 516.4,550.7 525.2,550.3 534,549.4 542.8,544 551.6,529.7 560.5,474.6 569.3,441.7 578.1,449 586.9,473.9 595.8,472.7 604.6,456.2 613.4,438.7 622.2,427 631.1,395.1 639.9,344.1 648.7,262 657.5,176 666.4,335.1 675.2,411.4 684,407.9 692.8,429.4 701.6,465.6 710.5,541.2 719.3,550 728.1,550.2 736.9,550.3 745.8,549.4 754.6,546 763.4,539.2 772.2,511.2 781.1,512.7 789.9,501 798.7,484.3 807.5,466.1 816.4,446.4 825.2,439.4 834,432.7 842.8,403.7 851.6,404.1 860.5,334.7 869.3,345 878.1,454.8 886.9,478.2 895.8,467.3 904.6,469.6 913.4,512 922.2,546.1 931.1,551.3 939.9,550.3 948.7,550.5 957.5,550.5 966.4,547.2 975.2,539.6 984,536.9 992.8,530.4 1001.6,515.6 1010.5,506.2 1019.3,487.3 1028.1,482.9 1036.9,475 1045.8,467.4 1054.6,446.8 1063.4,444.6 1072.2,417.4 1081.1,450.9 1089.9,483.7 1098.7,489.2 1107.5,487.8 1116.4,494.2 1125.2,527.2 1134,544.7"/>
    <rect x="920" y="154" width="238" height="90" rx="12" fill="#f8fafc" stroke="#d8e1ec"/>
    <circle cx="946" cy="184" r="6" fill="#2f80ed"/><text class="text" x="964" y="190">실제 승차량</text>
    <line x1="940" y1="216" x2="954" y2="216" stroke="#d94b3d" stroke-width="4" stroke-dasharray="7 5"/><text class="text" x="964" y="222">예측 승차량</text>
    <text class="label" x="84" y="610">역삼1동 · 테스트 구간 일부 120시간</text>
    <text class="small" x="84" y="636">피크와 저점의 시간대 패턴을 모델이 따라가는지 보여주는 발표용 예시입니다.</text>
</svg>